<svg width="512" height="512" viewBox="0 0 108 108" xmlns="http://www.w3.org/2000/svg">
    <rect width="108" height="108" fill="#000000"/>
    <!-- Cuerpo -->
    <path fill="#FFFFFF" d="M34,34 h40 a10,10 0 0 1 10,10 v30 a10,10 0 0 1 -10,10 h-40 a10,10 0 0 1 -10,-10 v-30 a10,10 0 0 1 10,-10 z"/>
    <!-- Botón -->
    <path fill="#FFFFFF" d="M48,24 h12 v10 h-12 z"/>
    <!-- Número 0 -->
    <path fill="#000000" d="M54,45 c-6,0 -9,4 -9,10 v8 c0,6 3,10 9,10 s9,-4 9,-10 v-8 c0,-6 -3,-10 -9,-10 z m5,18 c0,3 -1.5,6 -5,6 s-5,-3 -5,-6 v-8 c0,-3 1.5,-6 5,-6 s5,3 5,6 v8 z"/>
    <!-- Linea decorativa -->
    <path fill="#000000" d="M39,40 h30 v2 h-30 z"/>
</svg>